<svg viewBox="0 0 250 24" xmlns="http://www.w3.org/2000/svg">
<circle cx="11.3649" cy="12.5519" r="11.236" fill="#0085FF"/>
<path fill-rule="evenodd" clip-rule="evenodd" d="M14.8072 0C9.72995 0 5.61405 4.11589 5.61405 9.19311C5.61405 10.311 5.8136 11.3824 6.17902 12.3734C6.39221 12.9516 5.72352 13.7899 5.10728 13.7899C2.28661 13.7899 0 16.0765 0 18.8972C0 21.7179 2.28661 24.0045 5.10728 24.0045C7.92796 24.0045 10.2146 21.7179 10.2146 18.8972C10.2146 18.2803 11.0537 17.6104 11.6327 17.8234C12.6221 18.1875 13.6914 18.3862 14.8072 18.3862C19.8844 18.3862 24.0003 14.2703 24.0003 9.19311C24.0003 4.11589 19.8844 0 14.8072 0Z" fill="url(#paint0_linear_1573_83206)"/>
<path d="M43.1172 19.229C41.7656 19.8228 40.0742 20.1196 38.043 20.1196C32.1289 20.1196 29.1719 17.2095 29.1719 11.3892C29.1719 5.88135 32.1797 3.12744 38.1953 3.12744C40.0312 3.12744 41.6719 3.40088 43.1172 3.94775V6.76025C41.6719 6.13525 40.1094 5.82275 38.4297 5.82275C34.4062 5.82275 32.3945 7.67822 32.3945 11.3892C32.3945 15.4126 34.293 17.4243 38.0898 17.4243C38.6523 17.4243 39.293 17.3306 40.0117 17.1431V12.2681H43.1172V19.229ZM75.5678 19.2993C74.1225 19.8462 72.4819 20.1196 70.6459 20.1196C64.6303 20.1196 61.6225 17.2095 61.6225 11.3892C61.6225 5.88135 64.6303 3.12744 70.6459 3.12744C72.4819 3.12744 74.1225 3.40088 75.5678 3.94775V6.76025C74.1225 6.13525 72.56 5.82275 70.8803 5.82275C66.8569 5.82275 64.8452 7.67822 64.8452 11.3892C64.8452 15.4126 66.8569 17.4243 70.8803 17.4243C72.56 17.4243 74.1225 17.1118 75.5678 16.4868V19.2993ZM89.2502 3.24463V5.9165H80.8595V10.1353H88.8517V12.9126H80.8244V17.3071H89.4142V20.0024H77.7775V3.24463H89.2502Z" fill="#050306"/>
<path d="M50.4597 11.6235L43.862 3.24463H47.7878L52.4167 9.36182L57.0456 3.24463H60.9714L54.3855 11.6235L60.9714 20.0024H57.0456L52.4167 13.8853L47.7878 20.0024H43.862L50.4597 11.6235Z" fill="#4CC35A"/>
<path d="M103.818 18.0513C103.03 18.3976 102.043 18.5708 100.858 18.5708C97.4085 18.5708 95.6836 16.8732 95.6836 13.478C95.6836 10.2651 97.4382 8.65869 100.947 8.65869C102.018 8.65869 102.975 8.8182 103.818 9.13721V10.7778C102.975 10.4132 102.064 10.231 101.084 10.231C98.737 10.231 97.5635 11.3133 97.5635 13.478C97.5635 15.825 98.6709 16.9985 100.886 16.9985C101.214 16.9985 101.588 16.9438 102.007 16.8345V13.9907H103.818V18.0513ZM107.965 11.3247C110.143 11.3247 111.232 12.4367 111.232 14.6606C111.232 14.9569 111.212 15.2531 111.171 15.5493H106.406C106.406 16.561 107.149 17.0669 108.635 17.0669C109.359 17.0669 110.084 16.9985 110.809 16.8618V18.2974C110.175 18.4341 109.405 18.5024 108.498 18.5024C105.896 18.5024 104.595 17.2788 104.595 14.8315C104.595 12.4937 105.718 11.3247 107.965 11.3247ZM106.406 14.2915H109.469V14.2368C109.469 13.2433 108.967 12.7466 107.965 12.7466C107.008 12.7466 106.488 13.2616 106.406 14.2915ZM112.173 18.1606V16.6567C112.97 16.9757 113.891 17.1353 114.934 17.1353C115.714 17.1353 116.103 16.8846 116.103 16.3833C116.103 15.9048 115.841 15.6655 115.317 15.6655H114.018C112.56 15.6655 111.831 14.9478 111.831 13.5122C111.831 12.0083 112.895 11.2563 115.023 11.2563C115.926 11.2563 116.776 11.3931 117.573 11.6665V13.1704C116.776 12.8514 115.91 12.6919 114.975 12.6919C113.996 12.6919 113.506 12.9425 113.506 13.4438C113.506 13.9224 113.791 14.1616 114.36 14.1616H115.522C117.117 14.1616 117.915 14.8794 117.915 16.3149C117.915 17.8188 116.899 18.5708 114.866 18.5708C113.868 18.5708 112.97 18.4341 112.173 18.1606ZM120.578 8.72705V10.1626H118.766V8.72705H120.578ZM120.578 11.3247V18.5024H118.766V11.3247H120.578ZM121.532 16.2671C121.532 14.8407 122.571 14.1274 124.649 14.1274C125.137 14.1274 125.624 14.173 126.112 14.2642V13.7241C126.112 13.0815 125.649 12.7603 124.724 12.7603C123.94 12.7603 123.07 12.8742 122.113 13.1021V11.6665C123.07 11.4386 123.94 11.3247 124.724 11.3247C126.857 11.3247 127.924 12.1131 127.924 13.6899V18.5024H126.871L126.228 17.8599C125.604 18.2882 124.916 18.5024 124.164 18.5024C122.409 18.5024 121.532 17.7573 121.532 16.2671ZM126.112 15.4946C125.656 15.4035 125.169 15.3579 124.649 15.3579C123.779 15.3579 123.343 15.6541 123.343 16.2466C123.343 16.8846 123.708 17.2036 124.437 17.2036C125.039 17.2036 125.597 17.0168 126.112 16.6431V15.4946ZM135.041 13.6147L131.192 8.72705H133.482L136.182 12.2954L138.882 8.72705H141.172L137.331 13.6147L141.172 18.5024H138.882L136.182 14.9341L133.482 18.5024H131.192L135.041 13.6147ZM152.343 18.0923C151.5 18.4113 150.543 18.5708 149.472 18.5708C145.963 18.5708 144.208 16.8732 144.208 13.478C144.208 10.2651 145.963 8.65869 149.472 8.65869C150.543 8.65869 151.5 8.8182 152.343 9.13721V10.7778C151.5 10.4132 150.589 10.231 149.609 10.231C147.262 10.231 146.088 11.3133 146.088 13.478C146.088 15.825 147.262 16.9985 149.609 16.9985C150.589 16.9985 151.5 16.8162 152.343 16.4517V18.0923ZM153.119 16.2671C153.119 14.8407 154.158 14.1274 156.237 14.1274C156.724 14.1274 157.212 14.173 157.699 14.2642V13.7241C157.699 13.0815 157.237 12.7603 156.312 12.7603C155.528 12.7603 154.658 12.8742 153.7 13.1021V11.6665C154.658 11.4386 155.528 11.3247 156.312 11.3247C158.445 11.3247 159.511 12.1131 159.511 13.6899V18.5024H158.458L157.816 17.8599C157.191 18.2882 156.503 18.5024 155.751 18.5024C153.997 18.5024 153.119 17.7573 153.119 16.2671ZM157.699 15.4946C157.244 15.4035 156.756 15.3579 156.237 15.3579C155.366 15.3579 154.931 15.6541 154.931 16.2466C154.931 16.8846 155.296 17.2036 156.025 17.2036C156.626 17.2036 157.185 17.0168 157.699 16.6431V15.4946ZM160.807 18.5024V11.3247H162.208L162.434 12.2407C163.063 11.63 163.728 11.3247 164.43 11.3247V12.7876C163.755 12.7876 163.152 13.0679 162.618 13.6284V18.5024H160.807ZM166.847 16.8413C167.262 16.9735 167.742 17.0396 168.289 17.0396C169.383 17.0396 169.93 16.2671 169.93 14.7222C169.93 13.4598 169.458 12.8286 168.515 12.8286C167.904 12.8286 167.348 12.9517 166.847 13.1978V16.8413ZM165.035 8.72705H166.847V11.8716C167.389 11.507 167.993 11.3247 168.658 11.3247C170.7 11.3247 171.721 12.4731 171.721 14.77C171.721 17.2583 170.552 18.5024 168.214 18.5024C167.23 18.5024 166.17 18.4045 165.035 18.2085V8.72705ZM174.138 14.8862C174.138 16.3856 174.719 17.1353 175.881 17.1353C177.043 17.1353 177.624 16.3856 177.624 14.8862C177.624 13.4233 177.043 12.6919 175.881 12.6919C174.719 12.6919 174.138 13.4233 174.138 14.8862ZM172.326 14.9136C172.326 12.5073 173.511 11.3042 175.881 11.3042C178.251 11.3042 179.436 12.5073 179.436 14.9136C179.436 17.3153 178.251 18.5161 175.881 18.5161C173.52 18.5161 172.335 17.3153 172.326 14.9136ZM180.383 18.5024V11.3247H181.784L182.01 12.3774C182.698 11.6756 183.482 11.3247 184.361 11.3247C186.061 11.3247 186.911 12.2088 186.911 13.9771V18.5024H185.1V13.9771C185.1 13.1841 184.705 12.7876 183.917 12.7876C183.329 12.7876 182.755 13.0223 182.194 13.4917V18.5024H180.383ZM197.726 8.72705V10.2856H192.832V12.7466H197.494V14.3667H192.811V16.9302H197.822V18.5024H191.034V8.72705H197.726ZM200.738 14.9136L198.051 11.3247H200.068L201.743 13.5669L203.418 11.3247H205.434L202.755 14.9136L205.434 18.5024H203.418L201.743 16.2603L200.068 18.5024H198.051L200.738 14.9136ZM211.167 18.2974C210.574 18.4341 209.959 18.5024 209.321 18.5024C206.769 18.5024 205.493 17.2606 205.493 14.7769C205.493 12.4754 206.769 11.3247 209.321 11.3247C209.959 11.3247 210.574 11.3931 211.167 11.5298V12.9653C210.574 12.8286 210.005 12.7603 209.458 12.7603C208.022 12.7603 207.304 13.4325 207.304 14.7769C207.304 16.3035 208.022 17.0669 209.458 17.0669C210.005 17.0669 210.574 16.9985 211.167 16.8618V18.2974ZM211.943 18.5024V8.72705H213.754V12.2407C214.32 11.63 215.042 11.3247 215.921 11.3247C217.621 11.3247 218.471 12.2088 218.471 13.9771V18.5024H216.66V13.9771C216.66 13.1841 216.266 12.7876 215.477 12.7876C214.889 12.7876 214.315 13.0223 213.754 13.4917V18.5024H211.943ZM219.425 16.2671C219.425 14.8407 220.464 14.1274 222.542 14.1274C223.03 14.1274 223.518 14.173 224.005 14.2642V13.7241C224.005 13.0815 223.543 12.7603 222.618 12.7603C221.834 12.7603 220.963 12.8742 220.006 13.1021V11.6665C220.963 11.4386 221.834 11.3247 222.618 11.3247C224.75 11.3247 225.817 12.1131 225.817 13.6899V18.5024H224.764L224.122 17.8599C223.497 18.2882 222.809 18.5024 222.057 18.5024C220.303 18.5024 219.425 17.7573 219.425 16.2671ZM224.005 15.4946C223.55 15.4035 223.062 15.3579 222.542 15.3579C221.672 15.3579 221.237 15.6541 221.237 16.2466C221.237 16.8846 221.601 17.2036 222.331 17.2036C222.932 17.2036 223.49 17.0168 224.005 16.6431V15.4946ZM227.113 18.5024V11.3247H228.514L228.74 12.3774C229.428 11.6756 230.212 11.3247 231.091 11.3247C232.791 11.3247 233.641 12.2088 233.641 13.9771V18.5024H231.829V13.9771C231.829 13.1841 231.435 12.7876 230.647 12.7876C230.059 12.7876 229.485 13.0223 228.924 13.4917V18.5024H227.113ZM239.531 12.9517C239.234 12.8423 238.813 12.7876 238.266 12.7876C237.013 12.7876 236.386 13.478 236.386 14.8589C236.386 16.1942 236.926 16.8618 238.006 16.8618C238.526 16.8618 239.034 16.7388 239.531 16.4927V12.9517ZM241.342 17.9556C241.342 20.0519 240.082 21.1001 237.562 21.1001C236.678 21.1001 235.894 20.9862 235.21 20.7583V19.3228C235.908 19.5506 236.696 19.6646 237.576 19.6646C238.879 19.6646 239.531 19.1177 239.531 18.0239C238.993 18.2518 238.414 18.3657 237.794 18.3657C235.661 18.3657 234.595 17.2013 234.595 14.8726C234.595 12.5073 235.837 11.3247 238.321 11.3247C239.155 11.3247 240.162 11.4227 241.342 11.6187V17.9556ZM245.666 11.3247C247.845 11.3247 248.934 12.4367 248.934 14.6606C248.934 14.9569 248.913 15.2531 248.872 15.5493H244.108C244.108 16.561 244.85 17.0669 246.336 17.0669C247.061 17.0669 247.785 16.9985 248.51 16.8618V18.2974C247.877 18.4341 247.106 18.5024 246.199 18.5024C243.597 18.5024 242.296 17.2788 242.296 14.8315C242.296 12.4937 243.419 11.3247 245.666 11.3247ZM244.108 14.2915H247.17V14.2368C247.17 13.2433 246.669 12.7466 245.666 12.7466C244.709 12.7466 244.19 13.2616 244.108 14.2915Z" fill="#AEAEAE"/>
<defs>
<linearGradient id="paint0_linear_1573_83206" x1="15.1922" y1="8.17166" x2="3.82852" y2="21.0676" gradientUnits="userSpaceOnUse">
<stop stop-color="#F7C548"/>
<stop offset="1" stop-color="#68DA23"/>
</linearGradient>
</defs>
</svg>
