<svg viewBox="0 0 602 58" xmlns="http://www.w3.org/2000/svg">
<ellipse cx="28.2445" cy="30.3285" rx="26.9664" ry="27.1486" fill="#0085FF"/>
<path fill-rule="evenodd" clip-rule="evenodd" d="M36.5046 6.10352e-05C24.3193 6.10352e-05 14.4411 10.0272 14.4411 22.2125C14.4411 24.9127 14.9262 27.5069 15.8139 29.9096C16.3262 31.2959 14.7029 33.3194 13.225 33.3194C6.45538 33.3194 0.967529 38.89 0.967529 45.6597C0.967529 52.4293 6.45538 57.9999 13.225 57.9999C19.9946 57.9999 25.4825 52.4293 25.4825 45.6597C25.4825 44.1748 27.5244 42.5508 28.9165 43.0672C31.2825 43.9449 33.8383 44.425 36.5046 44.425C48.6899 44.425 58.568 34.3978 58.568 22.2125C58.568 10.0272 48.6899 6.10352e-05 36.5046 6.10352e-05Z" fill="url(#paint0_linear_1600_84530)"/>
<path d="M104.604 46.8078C101.349 48.2376 97.2762 48.9525 92.3848 48.9525C78.1432 48.9525 71.0224 41.9446 71.0224 27.9288C71.0224 14.6655 78.2655 8.03381 92.7517 8.03381C97.1728 8.03381 101.124 8.69227 104.604 10.0092V16.782C101.124 15.2769 97.3609 14.5244 93.3161 14.5244C83.6273 14.5244 78.7829 18.9925 78.7829 27.9288C78.7829 37.6176 83.3545 42.462 92.4977 42.462C93.8522 42.462 95.3949 42.2362 97.1257 41.7847V30.0453H104.604V46.8078ZM182.748 46.9771C179.268 48.2941 175.317 48.9525 170.896 48.9525C156.41 48.9525 149.166 41.9446 149.166 27.9288C149.166 14.6655 156.41 8.03381 170.896 8.03381C175.317 8.03381 179.268 8.69227 182.748 10.0092V16.782C179.268 15.2769 175.505 14.5244 171.46 14.5244C161.771 14.5244 156.927 18.9925 156.927 27.9288C156.927 37.6176 161.771 42.462 171.46 42.462C175.505 42.462 179.268 41.7094 182.748 40.2044V46.9771ZM215.696 8.31601V14.7501H195.491V24.9093H214.737V31.5973H195.406V42.1798H216.091V48.6703H188.069V8.31601H215.696Z" fill="white"/>
<path d="M122.285 28.4932L106.398 8.31601H115.851L126.998 23.0467L138.145 8.31601H147.599L131.739 28.4932L147.599 48.6703H138.145L126.998 33.9396L115.851 48.6703H106.398L122.285 28.4932Z" fill="#4CC35A"/>
<path d="M250.268 43.2082C248.37 44.0422 245.994 44.4593 243.14 44.4593C234.833 44.4593 230.679 40.3713 230.679 32.1954C230.679 24.4585 234.904 20.59 243.354 20.59C245.933 20.59 248.238 20.9741 250.268 21.7423V25.6931C248.238 24.8151 246.043 24.3762 243.683 24.3762C238.032 24.3762 235.206 26.9826 235.206 32.1954C235.206 37.8472 237.873 40.6731 243.206 40.6731C243.996 40.6731 244.896 40.5414 245.906 40.278V33.43H250.268V43.2082ZM260.253 27.01C265.499 27.01 268.122 29.6878 268.122 35.0433C268.122 35.7566 268.072 36.4699 267.974 37.1833H256.5C256.5 39.6196 258.289 40.8377 261.866 40.8377C263.611 40.8377 265.356 40.6731 267.101 40.3439V43.8008C265.576 44.13 263.721 44.2946 261.537 44.2946C255.271 44.2946 252.137 41.348 252.137 35.4548C252.137 29.8249 254.843 27.01 260.253 27.01ZM256.5 34.1543H263.875V34.0226C263.875 31.6302 262.667 30.434 260.253 30.434C257.948 30.434 256.697 31.6741 256.5 34.1543ZM270.386 43.4716V39.85C272.307 40.6182 274.523 41.0023 277.037 41.0023C278.913 41.0023 279.851 40.3987 279.851 39.1916C279.851 38.0393 279.22 37.4631 277.958 37.4631H274.831C271.319 37.4631 269.563 35.7346 269.563 32.2777C269.563 28.6562 272.126 26.8454 277.251 26.8454C279.423 26.8454 281.47 27.1746 283.391 27.8331V31.4546C281.47 30.6864 279.385 30.3023 277.135 30.3023C274.776 30.3023 273.596 30.9059 273.596 32.1131C273.596 33.2654 274.282 33.8416 275.654 33.8416H278.452C282.293 33.8416 284.214 35.57 284.214 39.0269C284.214 42.6485 281.767 44.4593 276.872 44.4593C274.469 44.4593 272.307 44.13 270.386 43.4716ZM290.627 20.7546V24.2116H286.264V20.7546H290.627ZM290.627 27.01V44.2946H286.264V27.01H290.627ZM292.924 38.9117C292.924 35.4767 295.426 33.7593 300.43 33.7593C301.605 33.7593 302.779 33.869 303.953 34.0885V32.788C303.953 31.2406 302.839 30.4669 300.611 30.4669C298.724 30.4669 296.628 30.7413 294.323 31.29V27.8331C296.628 27.2844 298.724 27.01 300.611 27.01C305.747 27.01 308.315 28.9086 308.315 32.7057V44.2946H305.78L304.233 42.7473C302.73 43.7789 301.072 44.2946 299.262 44.2946C295.037 44.2946 292.924 42.5003 292.924 38.9117ZM303.953 37.0516C302.856 36.8321 301.681 36.7223 300.43 36.7223C298.334 36.7223 297.286 37.4357 297.286 38.8623C297.286 40.3987 298.164 41.167 299.92 41.167C301.369 41.167 302.713 40.717 303.953 39.8171V37.0516ZM325.454 32.5246L316.186 20.7546H321.701L328.203 29.3476L334.705 20.7546H340.22L330.969 32.5246L340.22 44.2946H334.705L328.203 35.7017L321.701 44.2946H316.186L325.454 32.5246ZM367.12 43.307C365.09 44.0752 362.785 44.4593 360.206 44.4593C351.756 44.4593 347.531 40.3713 347.531 32.1954C347.531 24.4585 351.756 20.59 360.206 20.59C362.785 20.59 365.09 20.9741 367.12 21.7423V25.6931C365.09 24.8151 362.895 24.3762 360.535 24.3762C354.884 24.3762 352.058 26.9826 352.058 32.1954C352.058 37.8472 354.884 40.6731 360.535 40.6731C362.895 40.6731 365.09 40.2341 367.12 39.3562V43.307ZM368.989 38.9117C368.989 35.4767 371.492 33.7593 376.496 33.7593C377.67 33.7593 378.844 33.869 380.019 34.0885V32.788C380.019 31.2406 378.905 30.4669 376.677 30.4669C374.789 30.4669 372.693 30.7413 370.389 31.29V27.8331C372.693 27.2844 374.789 27.01 376.677 27.01C381.813 27.01 384.381 28.9086 384.381 32.7057V44.2946H381.846L380.299 42.7473C378.795 43.7789 377.138 44.2946 375.327 44.2946C371.102 44.2946 368.989 42.5003 368.989 38.9117ZM380.019 37.0516C378.921 36.8321 377.747 36.7223 376.496 36.7223C374.4 36.7223 373.352 37.4357 373.352 38.8623C373.352 40.3987 374.23 41.167 375.986 41.167C377.434 41.167 378.779 40.717 380.019 39.8171V37.0516ZM387.501 44.2946V27.01H390.876L391.419 29.2159C392.934 27.7453 394.536 27.01 396.226 27.01V30.5328C394.602 30.5328 393.148 31.2077 391.864 32.5576V44.2946H387.501ZM402.046 40.2945C403.045 40.6127 404.203 40.7719 405.52 40.7719C408.153 40.7719 409.47 38.9117 409.47 35.1914C409.47 32.1515 408.335 30.6316 406.063 30.6316C404.592 30.6316 403.253 30.9279 402.046 31.5205V40.2945ZM397.684 20.7546H402.046V28.3269C403.352 27.449 404.806 27.01 406.409 27.01C411.325 27.01 413.783 29.7756 413.783 35.3066C413.783 41.2986 410.968 44.2946 405.339 44.2946C402.968 44.2946 400.417 44.0587 397.684 43.5868V20.7546ZM419.603 35.5865C419.603 39.1971 421.003 41.0023 423.801 41.0023C426.6 41.0023 427.999 39.1971 427.999 35.5865C427.999 32.0637 426.6 30.3023 423.801 30.3023C421.003 30.3023 419.603 32.0637 419.603 35.5865ZM415.241 35.6523C415.241 29.8579 418.094 26.9606 423.801 26.9606C429.508 26.9606 432.361 29.8579 432.361 35.6523C432.361 41.4358 429.508 44.3276 423.801 44.3276C418.116 44.3276 415.263 41.4358 415.241 35.6523ZM434.642 44.2946V27.01H438.017L438.56 29.5451C440.217 27.855 442.105 27.01 444.223 27.01C448.316 27.01 450.363 29.139 450.363 33.3971V44.2946H446.001V33.3971C446.001 31.4876 445.051 30.5328 443.153 30.5328C441.737 30.5328 440.354 31.098 439.004 32.2283V44.2946H434.642ZM476.407 20.7546V24.5079H464.621V30.434H475.847V34.3354H464.571V40.5085H476.637V44.2946H460.291V20.7546H476.407ZM483.659 35.6523L477.19 27.01H482.046L486.079 32.4094L490.112 27.01H494.968L488.515 35.6523L494.968 44.2946H490.112L486.079 38.8953L482.046 44.2946H477.19L483.659 35.6523ZM508.772 43.8008C507.346 44.13 505.864 44.2946 504.328 44.2946C498.182 44.2946 495.109 41.3041 495.109 35.3231C495.109 29.781 498.182 27.01 504.328 27.01C505.864 27.01 507.346 27.1746 508.772 27.5039V30.9608C507.346 30.6316 505.974 30.4669 504.657 30.4669C501.2 30.4669 499.472 32.0857 499.472 35.3231C499.472 38.9995 501.2 40.8377 504.657 40.8377C505.974 40.8377 507.346 40.6731 508.772 40.3439V43.8008ZM510.642 44.2946V20.7546H515.004V29.2159C516.365 27.7453 518.104 27.01 520.222 27.01C524.316 27.01 526.363 29.139 526.363 33.3971V44.2946H522V33.3971C522 31.4876 521.051 30.5328 519.152 30.5328C517.737 30.5328 516.354 31.098 515.004 32.2283V44.2946H510.642ZM528.66 38.9117C528.66 35.4767 531.162 33.7593 536.166 33.7593C537.341 33.7593 538.515 33.869 539.689 34.0885V32.788C539.689 31.2406 538.575 30.4669 536.347 30.4669C534.46 30.4669 532.364 30.7413 530.059 31.29V27.8331C532.364 27.2844 534.46 27.01 536.347 27.01C541.483 27.01 544.051 28.9086 544.051 32.7057V44.2946H541.516L539.969 42.7473C538.466 43.7789 536.808 44.2946 534.998 44.2946C530.773 44.2946 528.66 42.5003 528.66 38.9117ZM539.689 37.0516C538.592 36.8321 537.417 36.7223 536.166 36.7223C534.07 36.7223 533.022 37.4357 533.022 38.8623C533.022 40.3987 533.9 41.167 535.656 41.167C537.105 41.167 538.449 40.717 539.689 39.8171V37.0516ZM547.172 44.2946V27.01H550.547L551.09 29.5451C552.747 27.855 554.635 27.01 556.753 27.01C560.846 27.01 562.893 29.139 562.893 33.3971V44.2946H558.53V33.3971C558.53 31.4876 557.581 30.5328 555.683 30.5328C554.267 30.5328 552.884 31.098 551.534 32.2283V44.2946H547.172ZM577.075 30.9279C576.362 30.6645 575.347 30.5328 574.03 30.5328C571.012 30.5328 569.503 32.1954 569.503 35.5206C569.503 38.7361 570.803 40.3439 573.404 40.3439C574.655 40.3439 575.879 40.0476 577.075 39.4549V30.9279ZM581.438 42.9777C581.438 48.0259 578.403 50.55 572.334 50.55C570.205 50.55 568.318 50.2757 566.672 49.727V46.27C568.351 46.8187 570.249 47.0931 572.367 47.0931C575.506 47.0931 577.075 45.7762 577.075 43.1423C575.78 43.6911 574.387 43.9654 572.894 43.9654C567.758 43.9654 565.19 41.1615 565.19 35.5536C565.19 29.8579 568.181 27.01 574.162 27.01C576.17 27.01 578.595 27.246 581.438 27.7179V42.9777ZM591.851 27.01C597.096 27.01 599.719 29.6878 599.719 35.0433C599.719 35.7566 599.67 36.4699 599.571 37.1833H588.097C588.097 39.6196 589.886 40.8377 593.464 40.8377C595.209 40.8377 596.954 40.6731 598.699 40.3439V43.8008C597.173 44.13 595.318 44.2946 593.135 44.2946C586.868 44.2946 583.735 41.348 583.735 35.4548C583.735 29.8249 586.44 27.01 591.851 27.01ZM588.097 34.1543H595.472V34.0226C595.472 31.6302 594.265 30.434 591.851 30.434C589.546 30.434 588.295 31.6741 588.097 34.1543Z" fill="white"/>
<defs>
<linearGradient id="paint0_linear_1600_84530" x1="37.4288" y1="19.7445" x2="9.94908" y2="50.7203" gradientUnits="userSpaceOnUse">
<stop stop-color="#F7C548"/>
<stop offset="1" stop-color="#68DA23"/>
</linearGradient>
</defs>
</svg>
